# xmcd
#
# Track frame offsets: 
#        182
#        18872
#        35780
#        55912
#        80110
#        100192
#        123327
#        138965
#        154890
#        171127
#        194390
#        215342
#        238565
#        259042
#
# Disc length: 3836 seconds
#
# Revision: 10
# Processed by: cddbd v1.5.2PL0 Copyright (c) Steve Scherf et al.
# Submitted via: ExactAudioCopy v0.99pb4
#
DISCID=be0efa0e
DTITLE=Various Artist - Rock With The Stars
DYEAR=1995
DGENRE=Pop
TTITLE0=Gerry Rafferty - Baker Street
TTITLE1=Kim Carnes - Bette Davis Eyes
TTITLE2=Huey Lewis and The News - Stuck With You
TTITLE3=Pat Benatar - Love Is A Battlefield
TTITLE4=Saxon - Ride Like The Wind
TTITLE5=T'Pau - China In Your Hand
TTITLE6=Kim Wilde - Kids In America
TTITLE7=John Waite - Missing You
TTITLE8=Max Werner - Rain In May
TTITLE9=Joe Cocker - With A Little Help From My Friends
TTITLE10=Hawkwind - Silver Machine
TTITLE11=Meat Loaf - Heroes
TTITLE12=Electric Light Orchestra - Roll Over Beethoven
TTITLE13=Golden Earring - Radar Love
EXTD=YEAR: 1995
EXTT0=
EXTT1=
EXTT2=
EXTT3=
EXTT4=
EXTT5=
EXTT6=
EXTT7=
EXTT8=
EXTT9=
EXTT10=
EXTT11=
EXTT12=
EXTT13=
PLAYORDER=
